<svg width="610" height="132" viewBox="0 0 610 132" fill="none" xmlns="http://www.w3.org/2000/svg">
<path d="M31.2896 24.6515L17.3279 105H1.15887L15.0653 24.6515H31.2896ZM56.3985 58.9762L54.1359 71.8893H18.5971L20.8597 58.9762H56.3985ZM66.0558 24.6515L63.8484 37.6198H24.5571L26.8196 24.6515H66.0558ZM68.4353 24.6515L96.7449 24.7067C101.638 24.7802 106.071 25.6816 110.044 27.4107C114.054 29.1398 117.163 31.7335 119.371 35.1917C121.615 38.6499 122.553 43.0463 122.185 48.3808C121.817 52.7587 120.75 56.4561 118.984 59.4729C117.255 62.4896 114.919 65.0465 111.976 67.1435C109.069 69.2405 105.722 71.0432 101.932 72.5516L96.3034 75.2556H70.146L72.3534 62.3424L90.3435 62.4528C93.0292 62.416 95.4757 61.901 97.683 60.9076C99.8904 59.9143 101.712 58.4795 103.146 56.6033C104.618 54.6902 105.538 52.3725 105.906 49.65C106.237 47.2587 106.071 45.1801 105.409 43.4142C104.783 41.6483 103.698 40.2687 102.153 39.2754C100.608 38.282 98.6396 37.7486 96.2482 37.675L82.397 37.6198L70.6979 105H54.5288L68.4353 24.6515ZM98.5108 105L86.9221 69.1853L103.201 69.0749L115.728 104.117V105H98.5108ZM161.262 39.2202L128.924 105H111.155L154.088 24.6515H165.456L161.262 39.2202ZM167.664 105L157.841 37.5095L158.448 24.6515H169.098L184.274 105H167.664ZM171.747 75.09L169.485 88.0584H128.151L130.414 75.09H171.747ZM206.575 24.6515H219.709L229.477 83.4781L259.663 24.6515H273.9L231.85 105H220.813L206.575 24.6515ZM198.905 24.6515H212.59L205.03 82.871L201.112 105H184.998L198.905 24.6515ZM267.278 24.6515H281.019L267.112 105H250.888L255.027 81.4914L267.278 24.6515ZM328.926 92.0868L326.663 105H285.109L287.317 92.0868H328.926ZM304.369 24.6515L290.407 105H274.238L288.144 24.6515H304.369ZM329.533 57.3758L327.325 69.9579H291.179L293.387 57.3758H329.533ZM340.514 24.6515L338.252 37.6198H296.753L299.071 24.6515H340.514Z" fill="white"/>
<mask id="path-2-outside-1_8_83" maskUnits="userSpaceOnUse" x="400" y="22" width="209" height="83" fill="black">
<rect fill="white" x="400" y="22" width="209" height="83"/>
<path d="M419.219 86.5156L441.109 29.75H448.422L448.891 39.875L425.828 98H417.859L419.219 86.5156ZM421.328 29.75L423.297 87.7812L420.953 98H412L407.969 29.75H421.328ZM453.062 86.3281L472.609 29.75H486.484L461.125 98H452.266L453.062 86.3281ZM452.734 29.75L457.094 88.0625L455.312 98H447.297L442.281 38.7031L445.234 29.75H452.734ZM517.094 42.125L489.625 98H474.531L511 29.75H520.656L517.094 42.125ZM522.531 98L514.188 40.6719L514.703 29.75H523.75L536.641 98H522.531ZM526 72.5938L524.078 83.6094H488.969L490.891 72.5938H526ZM573.812 73.7188L556.141 73.6719L558.062 62.7031L574.281 62.75C576.594 62.75 578.719 62.3438 580.656 61.5312C582.594 60.6875 584.188 59.4688 585.438 57.875C586.688 56.2812 587.484 54.2812 587.828 51.875C588.141 49.8438 588.031 48.0156 587.5 46.3906C586.969 44.7656 586.031 43.4531 584.688 42.4531C583.344 41.4531 581.609 40.9062 579.484 40.8125L566.688 40.7656L556.75 98H543.016L554.828 29.75L579.906 29.7969C584.25 29.8906 588.125 30.8281 591.531 32.6094C594.938 34.3594 597.562 36.8594 599.406 40.1094C601.281 43.3281 602.031 47.2188 601.656 51.7812C601.25 56.75 599.703 60.8594 597.016 64.1094C594.328 67.3594 590.938 69.7812 586.844 71.375C582.781 72.9375 578.438 73.7188 573.812 73.7188Z"/>
</mask>
<path d="M419.219 86.5156L412.688 83.997L412.371 84.8185L412.267 85.6928L419.219 86.5156ZM441.109 29.75V22.75H436.306L434.578 27.2314L441.109 29.75ZM448.422 29.75L455.414 29.4263L455.105 22.75H448.422V29.75ZM448.891 39.875L455.397 42.4566L455.953 41.0562L455.883 39.5513L448.891 39.875ZM425.828 98V105H430.582L432.335 100.582L425.828 98ZM417.859 98L410.908 97.1772L409.982 105H417.859V98ZM421.328 29.75L428.324 29.5127L428.095 22.75H421.328V29.75ZM423.297 87.7812L430.12 89.3461L430.324 88.4563L430.293 87.5439L423.297 87.7812ZM420.953 98V105H426.529L427.776 99.5649L420.953 98ZM412 98L405.012 98.4127L405.401 105H412V98ZM407.969 29.75V22.75H400.543L400.981 30.1627L407.969 29.75ZM453.062 86.3281L446.446 84.0423L446.142 84.9224L446.079 85.8513L453.062 86.3281ZM472.609 29.75V22.75H467.622L465.993 27.4642L472.609 29.75ZM486.484 29.75L493.046 32.1881L496.553 22.75H486.484V29.75ZM461.125 98V105H465.992L467.687 100.438L461.125 98ZM452.266 98L445.282 97.5232L444.771 105H452.266V98ZM452.734 29.75L459.715 29.2281L459.231 22.75H452.734V29.75ZM457.094 88.0625L463.984 89.2975L464.14 88.4248L464.074 87.5406L457.094 88.0625ZM455.312 98V105H461.169L462.203 99.235L455.312 98ZM447.297 98L440.322 98.59L440.864 105H447.297V98ZM442.281 38.7031L435.634 36.5104L435.186 37.8683L435.306 39.2931L442.281 38.7031ZM445.234 29.75V22.75H440.172L438.587 27.5573L445.234 29.75ZM425.75 89.0343L447.641 32.2686L434.578 27.2314L412.688 83.997L425.75 89.0343ZM441.109 36.75H448.422V22.75H441.109V36.75ZM441.429 30.0737L441.898 40.1987L455.883 39.5513L455.414 29.4263L441.429 30.0737ZM442.384 37.2934L419.322 95.4184L432.335 100.582L455.397 42.4566L442.384 37.2934ZM425.828 91H417.859V105H425.828V91ZM424.811 98.8228L426.17 87.3385L412.267 85.6928L410.908 97.1772L424.811 98.8228ZM414.332 29.9873L416.301 88.0186L430.293 87.5439L428.324 29.5127L414.332 29.9873ZM416.474 86.2164L414.13 96.4351L427.776 99.5649L430.12 89.3461L416.474 86.2164ZM420.953 91H412V105H420.953V91ZM418.988 97.5873L414.957 29.3373L400.981 30.1627L405.012 98.4127L418.988 97.5873ZM407.969 36.75H421.328V22.75H407.969V36.75ZM459.679 88.6139L479.226 32.0358L465.993 27.4642L446.446 84.0423L459.679 88.6139ZM472.609 36.75H486.484V22.75H472.609V36.75ZM479.923 27.3119L454.563 95.5619L467.687 100.438L493.046 32.1881L479.923 27.3119ZM461.125 91H452.266V105H461.125V91ZM459.249 98.4768L460.046 86.8049L446.079 85.8513L445.282 97.5232L459.249 98.4768ZM445.754 30.2719L450.113 88.5844L464.074 87.5406L459.715 29.2281L445.754 30.2719ZM450.204 86.8275L448.422 96.765L462.203 99.235L463.984 89.2975L450.204 86.8275ZM455.312 91H447.297V105H455.312V91ZM454.272 97.41L449.256 38.1131L435.306 39.2931L440.322 98.59L454.272 97.41ZM448.929 40.8958L451.882 31.9427L438.587 27.5573L435.634 36.5104L448.929 40.8958ZM445.234 36.75H452.734V22.75H445.234V36.75ZM517.094 42.125L523.376 45.2133L523.649 44.6571L523.821 44.0615L517.094 42.125ZM489.625 98V105H493.984L495.907 101.088L489.625 98ZM474.531 98L468.357 94.701L462.854 105H474.531V98ZM511 29.75V22.75H506.804L504.826 26.451L511 29.75ZM520.656 29.75L527.383 31.6865L529.956 22.75H520.656V29.75ZM522.531 98L515.604 99.0082L516.476 105H522.531V98ZM514.188 40.6719L507.195 40.3418L507.164 41.014L507.26 41.6801L514.188 40.6719ZM514.703 29.75V22.75H508.026L507.711 29.4199L514.703 29.75ZM523.75 29.75L530.628 28.4509L529.552 22.75H523.75V29.75ZM536.641 98V105H545.087L543.519 96.7009L536.641 98ZM526 72.5938L532.896 73.7969L534.327 65.5938H526V72.5938ZM524.078 83.6094V90.6094H529.963L530.974 84.8125L524.078 83.6094ZM488.969 83.6094L482.073 82.4063L480.642 90.6094H488.969V83.6094ZM490.891 72.5938V65.5938H485.006L483.995 71.3906L490.891 72.5938ZM510.812 39.0367L483.343 94.9117L495.907 101.088L523.376 45.2133L510.812 39.0367ZM489.625 91H474.531V105H489.625V91ZM480.705 101.299L517.174 33.049L504.826 26.451L468.357 94.701L480.705 101.299ZM511 36.75H520.656V22.75H511V36.75ZM513.929 27.8135L510.367 40.1885L523.821 44.0615L527.383 31.6865L513.929 27.8135ZM529.458 96.9918L521.115 39.6637L507.26 41.6801L515.604 99.0082L529.458 96.9918ZM521.18 41.002L521.695 30.0801L507.711 29.4199L507.195 40.3418L521.18 41.002ZM514.703 36.75H523.75V22.75H514.703V36.75ZM516.872 31.0491L529.762 99.2991L543.519 96.7009L530.628 28.4509L516.872 31.0491ZM536.641 91H522.531V105H536.641V91ZM519.104 71.3906L517.182 82.4063L530.974 84.8125L532.896 73.7969L519.104 71.3906ZM524.078 76.6094H488.969V90.6094H524.078V76.6094ZM495.865 84.8125L497.786 73.7969L483.995 71.3906L482.073 82.4063L495.865 84.8125ZM490.891 79.5938H526V65.5938H490.891V79.5938ZM573.812 73.7188L573.794 80.7187L573.803 80.7188H573.812V73.7188ZM556.141 73.6719L549.246 72.4638L547.811 80.6498L556.122 80.6719L556.141 73.6719ZM558.062 62.7031L558.083 55.7032L552.185 55.6861L551.168 61.495L558.062 62.7031ZM574.281 62.75L574.261 69.75L574.271 69.75H574.281V62.75ZM580.656 61.5312L583.363 67.9866L583.407 67.9682L583.451 67.9491L580.656 61.5312ZM587.828 51.875L580.91 50.8106L580.904 50.8478L580.898 50.8851L587.828 51.875ZM579.484 40.8125L579.793 33.8193L579.652 33.8131L579.51 33.8125L579.484 40.8125ZM566.688 40.7656L566.713 33.7657L560.802 33.744L559.791 39.5681L566.688 40.7656ZM556.75 98V105H562.639L563.647 99.1975L556.75 98ZM543.016 98L536.118 96.8062L534.7 105H543.016V98ZM554.828 29.75L554.841 22.75L548.938 22.739L547.931 28.5562L554.828 29.75ZM579.906 29.7969L580.057 22.7985L579.988 22.797L579.919 22.7969L579.906 29.7969ZM591.531 32.6094L588.287 38.8124L588.31 38.8242L588.332 38.8357L591.531 32.6094ZM599.406 40.1094L593.318 43.5634L593.338 43.5982L593.358 43.6328L599.406 40.1094ZM601.656 51.7812L594.68 51.2078L594.68 51.2108L601.656 51.7812ZM586.844 71.375L589.357 77.9084L589.37 77.9033L589.383 77.8981L586.844 71.375ZM573.831 66.7188L556.159 66.6719L556.122 80.6719L573.794 80.7187L573.831 66.7188ZM563.036 74.88L564.957 63.9112L551.168 61.495L549.246 72.4638L563.036 74.88ZM558.042 69.7031L574.261 69.75L574.301 55.75L558.083 55.7032L558.042 69.7031ZM574.281 69.75C577.429 69.75 580.486 69.1933 583.363 67.9866L577.949 55.0759C576.952 55.4942 575.758 55.75 574.281 55.75V69.75ZM583.451 67.9491C586.405 66.6627 588.948 64.7423 590.945 62.195L579.93 53.555C579.427 54.1952 578.782 54.7123 577.861 55.1134L583.451 67.9491ZM590.945 62.195C593.092 59.4585 594.275 56.2433 594.758 52.8649L580.898 50.8851C580.694 52.3192 580.283 53.104 579.93 53.555L590.945 62.195ZM594.747 52.9394C595.193 50.0397 595.088 47.0751 594.153 44.2155L580.847 48.5658C580.974 48.9561 581.088 49.6478 580.91 50.8106L594.747 52.9394ZM594.153 44.2155C593.183 41.2459 591.396 38.72 588.867 36.8375L580.508 48.0688C580.666 48.1863 580.755 48.2853 580.847 48.5658L594.153 44.2155ZM588.867 36.8375C586.131 34.8015 582.94 33.9581 579.793 33.8193L579.176 47.8057C579.729 47.8301 580.078 47.9071 580.274 47.969C580.37 47.9994 580.431 48.0264 580.463 48.0427C580.495 48.0587 580.508 48.0682 580.508 48.0688L588.867 36.8375ZM579.51 33.8125L566.713 33.7657L566.662 47.7656L579.459 47.8125L579.51 33.8125ZM559.791 39.5681L549.853 96.8025L563.647 99.1975L573.584 41.9631L559.791 39.5681ZM556.75 91H543.016V105H556.75V91ZM549.913 99.1938L561.726 30.9438L547.931 28.5562L536.118 96.8062L549.913 99.1938ZM554.815 36.75L579.893 36.7969L579.919 22.7969L554.841 22.75L554.815 36.75ZM579.755 36.7952C583.162 36.8688 585.955 37.5927 588.287 38.8124L594.775 26.4063C590.295 24.0635 585.338 22.9125 580.057 22.7985L579.755 36.7952ZM588.332 38.8357C590.558 39.9791 592.164 41.5301 593.318 43.5634L605.495 36.6553C602.961 32.1887 599.317 28.7396 594.73 26.383L588.332 38.8357ZM593.358 43.6328C594.36 45.3542 594.965 47.7427 594.68 51.2078L608.633 52.3547C609.098 46.6948 608.202 41.3021 605.455 36.5859L593.358 43.6328ZM594.68 51.2108C594.368 55.0179 593.239 57.6924 591.621 59.6485L602.41 68.5702C606.168 64.0263 608.132 58.4821 608.633 52.3517L594.68 51.2108ZM591.621 59.6485C589.726 61.94 587.334 63.6723 584.304 64.8519L589.383 77.8981C594.541 75.8902 598.93 72.7788 602.41 68.5702L591.621 59.6485ZM584.331 64.8416C581.119 66.0768 577.633 66.7188 573.812 66.7188V80.7188C579.242 80.7188 584.443 79.7982 589.357 77.9084L584.331 64.8416Z" fill="#FC72FF" mask="url(#path-2-outside-1_8_83)"/>
<path d="M375.27 25.1949C376.578 23.9346 378.289 23.1669 380.107 23.0242C381.925 22.8815 383.736 23.3728 385.228 24.4134C386.72 25.4539 387.799 26.9784 388.279 28.7239C388.76 30.4695 388.611 32.3266 387.859 33.975L379.976 51.1815H390.943C399.054 51.1815 403.062 60.9662 397.245 66.5787L359.327 103.186C358.123 104.349 356.509 105 354.828 105H353.268C352.208 105 351.165 104.741 350.231 104.247C349.296 103.752 348.498 103.037 347.907 102.165C347.317 101.292 346.952 100.289 346.844 99.2431C346.737 98.1974 346.89 97.1416 347.291 96.1686L355.272 76.8094H344.057C335.946 76.8094 331.938 67.0246 337.755 61.4121L375.264 25.1897L375.27 25.1949ZM380.678 30.6997L343.148 66.9221C342.963 67.1005 342.837 67.3294 342.785 67.5796C342.732 67.8297 342.757 68.0896 342.854 68.326C342.952 68.5623 343.119 68.7643 343.333 68.906C343.547 69.0476 343.8 69.1225 344.057 69.121H361.043C361.678 69.1211 362.304 69.2764 362.865 69.5732C363.426 69.87 363.905 70.2992 364.259 70.8229C364.613 71.3465 364.832 71.9487 364.896 72.5761C364.961 73.2036 364.868 73.8371 364.628 74.4208L355.778 95.8867L391.847 61.0687C392.031 60.8907 392.157 60.6622 392.21 60.4126C392.262 60.1629 392.238 59.9034 392.141 59.6673C392.044 59.4311 391.878 59.2291 391.665 59.0871C391.451 58.945 391.2 58.8694 390.943 58.8699H373.957C373.309 58.8699 372.671 58.7087 372.102 58.4008C371.533 58.093 371.051 57.6484 370.7 57.1078C370.349 56.5673 370.14 55.9479 370.093 55.3066C370.046 54.6652 370.161 54.0223 370.429 53.4368L380.802 30.792L380.818 30.7612C380.813 30.745 380.806 30.7295 380.797 30.7151L380.766 30.6844L380.725 30.6792C380.709 30.6792 380.694 30.6895 380.678 30.6997Z" fill="#FC72FF"/>
</svg>
