<svg width="45" height="57" viewBox="0 0 45 57" fill="none" xmlns="http://www.w3.org/2000/svg">
<path d="M27.8789 1.5257C28.7848 0.649637 29.9693 0.115997 31.2279 0.0168235C32.4865 -0.0823495 33.7404 0.259163 34.7733 0.982456C35.8062 1.70575 36.5533 2.76547 36.8858 3.97883C37.2183 5.19219 37.1153 6.48312 36.5947 7.62894L31.137 19.5896H38.7298C44.3448 19.5896 47.1201 26.3912 43.093 30.2925L16.8421 55.7387C16.0083 56.5473 14.8907 56.9998 13.727 57H12.647C11.9136 57 11.1914 56.8202 10.5442 56.4765C9.89701 56.1328 9.34462 55.6357 8.93576 55.0292C8.5269 54.4226 8.27412 53.7251 8.19971 52.9983C8.12529 52.2714 8.23153 51.5374 8.50905 50.8611L14.0346 37.4041H6.27022C0.65524 37.4041 -2.12006 30.6025 1.90699 26.7011L27.8754 1.52214L27.8789 1.5257ZM31.6234 5.35225L5.64077 30.5312C5.51313 30.6552 5.42561 30.8143 5.38943 30.9882C5.35325 31.1621 5.37007 31.3428 5.43773 31.5071C5.50539 31.6714 5.62079 31.8118 5.76913 31.9103C5.91747 32.0087 6.09197 32.0608 6.27022 32.0597H18.0295C18.4696 32.0598 18.9029 32.1678 19.2912 32.3741C19.6795 32.5804 20.0109 32.8787 20.2561 33.2427C20.5014 33.6067 20.6529 34.0253 20.6975 34.4614C20.742 34.8976 20.6782 35.338 20.5115 35.7438L14.3851 50.6652L39.3557 26.4624C39.4831 26.3387 39.5705 26.1798 39.6068 26.0063C39.6431 25.8327 39.6266 25.6524 39.5594 25.4882C39.4921 25.3241 39.3773 25.1837 39.2295 25.0849C39.0817 24.9862 38.9077 24.9336 38.7298 24.9339H26.9705C26.5218 24.934 26.0803 24.8219 25.6863 24.6079C25.2923 24.3939 24.9585 24.0849 24.7155 23.7091C24.4725 23.3333 24.3279 22.9028 24.2951 22.457C24.2624 22.0112 24.3424 21.5643 24.5278 21.1573L31.7093 5.41638L31.72 5.39501C31.7167 5.38371 31.7119 5.37292 31.7057 5.36294L31.6842 5.34156L31.6556 5.338C31.6449 5.338 31.6342 5.34512 31.6234 5.35225Z" fill="#FC72FF"/>
</svg>
