<svg width="46" height="57" viewBox="0 0 46 57" fill="none" xmlns="http://www.w3.org/2000/svg">
<path d="M27.9923 1.5257C28.9019 0.649637 30.0911 0.115997 31.3548 0.0168235C32.6185 -0.0823495 33.8775 0.259163 34.9146 0.982456C35.9517 1.70575 36.7019 2.76547 37.0357 3.97883C37.3696 5.19219 37.2662 6.48312 36.7434 7.62894L31.2636 19.5896H38.8872C44.525 19.5896 47.3116 26.3912 43.2682 30.2925L16.9106 55.7387C16.0734 56.5473 14.9512 56.9998 13.7828 57H12.6984C11.962 57 11.2369 56.8202 10.5871 56.4765C9.93724 56.1328 9.38261 55.6357 8.97209 55.0292C8.56156 54.4226 8.30775 53.7251 8.23304 52.9983C8.15832 52.2714 8.26499 51.5374 8.54364 50.8611L14.0917 37.4041H6.2957C0.657903 37.4041 -2.12868 30.6025 1.91474 26.7011L27.9887 1.52214L27.9923 1.5257ZM31.752 5.35225L5.6637 30.5312C5.53554 30.6552 5.44766 30.8143 5.41134 30.9882C5.37501 31.1621 5.3919 31.3428 5.45983 31.5071C5.52776 31.6714 5.64364 31.8118 5.79258 31.9103C5.94152 32.0087 6.11673 32.0608 6.2957 32.0597H18.1028C18.5446 32.0598 18.9797 32.1678 19.3696 32.3741C19.7595 32.5804 20.0922 32.8787 20.3385 33.2427C20.5847 33.6067 20.7369 34.0253 20.7816 34.4614C20.8263 34.8976 20.7622 35.338 20.5949 35.7438L14.4436 50.6652L39.5156 26.4624C39.6436 26.3387 39.7314 26.1798 39.7678 26.0063C39.8042 25.8327 39.7876 25.6524 39.7202 25.4882C39.6527 25.3241 39.5374 25.1837 39.389 25.0849C39.2406 24.9862 39.0659 24.9336 38.8872 24.9339H27.0802C26.6296 24.934 26.1863 24.8219 25.7907 24.6079C25.3951 24.3939 25.06 24.0849 24.816 23.7091C24.5719 23.3333 24.4268 22.9028 24.3939 22.457C24.361 22.0112 24.4413 21.5643 24.6275 21.1573L31.8382 5.41638L31.8489 5.39501C31.8457 5.38371 31.8408 5.37292 31.8346 5.36294L31.813 5.34156L31.7843 5.338C31.7735 5.338 31.7628 5.34512 31.752 5.35225Z" fill="#FC72FF"/>
</svg>
